Coordinates
version=1
nRows=26
nColumns=24
inDegrees=yes

Units are S.I. units (second, meters, Newtons, ...)
Angles are in degrees.

endheader
time	pelvis_tilt	pelvis_list	pelvis_rotation	pelvis_tx	pelvis_ty	pelvis_tz	hip_flexion_r	hip_adduction_r	hip_rotation_r	knee_angle_r	ankle_angle_r	subtalar_angle_r	mtp_angle_r	hip_flexion_l	hip_adduction_l	hip_rotation_l	knee_angle_l	ankle_angle_l	subtalar_angle_l	mtp_angle_l	lumbar_extension	lumbar_bending	lumbar_rotation
      4.01000000	      3.26200975	     -6.40756290	     -7.10337023	     -2.65029281	      0.87516509	      0.18139456	    -23.14608641	      6.38614128	      8.95580535	    -15.04369264	     13.02025900	      2.67290742	      0.00000000	     22.33431673	     -6.33932393	     -4.73741915	     -5.62366182	      2.80016943	     -0.72232722	      0.00000000	    -20.93308910	      4.18598356	      7.36058246
      4.02000000	      3.23832833	     -5.99753893	     -7.45657447	     -2.63508463	      0.87447013	      0.18066430	    -23.24039838	      5.70335579	      8.78135150	    -16.37357422	     11.81199692	      2.71374559	      0.00000000	     22.06864673	     -5.96294644	     -5.20388514	     -6.64494197	      2.04340148	     -2.18957138	      0.00000000	    -20.35963095	      3.50968504	      7.60978267
      4.03000000	      3.20194204	     -5.49527665	     -7.75697359	     -2.61973516	      0.87381100	      0.17980355	    -23.14387547	      4.93625370	      8.31380123	    -17.94447865	     10.45855813	      2.92776173	      0.00000000	     21.78560357	     -5.44035254	     -5.49549084	     -7.60170575	      0.79954186	     -4.05678460	      0.00000000	    -19.72844312	      2.75938976	      7.70013315
      4.04000000	      3.19854329	     -4.89663332	     -7.96569345	     -2.60440195	      0.87329735	      0.17882764	    -22.90651911	      4.10966116	      7.72039879	    -19.73254325	      8.82349181	      3.06491599	      0.00000000	     21.53287644	     -4.76554817	     -5.65465177	     -8.64493939	     -0.63868347	     -6.02173349	      0.00000000	    -19.12748710	      1.91807142	      7.61085886
      4.05000000	      3.23598701	     -4.20766149	     -8.02170949	     -2.58922674	      0.87297121	      0.17769969	    -22.51137464	      3.25101370	      6.94803365	    -21.75868637	      6.87497377	      3.14012764	      0.00000000	     21.38569825	     -3.93655063	     -5.67474979	     -9.91021349	     -1.93704870	     -7.78000664	      0.00000000	    -18.59047160	      0.99891033	      7.28680135
      4.06000000	      3.31690311	     -3.45747702	     -7.91432864	     -2.57435499	      0.87286131	      0.17644920	    -21.93292389	      2.39516346	      6.01643054	    -24.06179355	      4.62322106	      3.09916927	      0.00000000	     21.37343940	     -2.99367653	     -5.60930601	    -11.47373401	     -2.70153114	     -9.02894253	      0.00000000	    -18.16072603	      0.02510004	      6.78188315
      4.07000000	      3.52108211	     -2.67216266	     -7.62140829	     -2.55985793	      0.87309529	      0.17509200	    -21.27695986	      1.56764045	      4.98261038	    -26.60084292	      2.05888381	      2.89254795	      0.00000000	     21.38878188	     -1.96733613	     -5.60255883	    -13.31218720	     -2.68176146	     -9.43098913	      0.00000000	    -17.96187540	     -0.98802427	      6.07515234
      4.08000000	      3.72302682	     -1.89672605	     -7.15441212	     -2.54577591	      0.87349230	      0.17357740	    -20.39034260	      0.80981377	      3.83918343	    -29.41763472	     -0.65928705	      2.58938848	      0.00000000	     21.43314661	     -0.86938519	     -5.27061702	    -15.20115174	     -2.18915285	     -9.71108307	      0.00000000	    -17.85270156	     -1.95161608	      5.21387847
      4.09000000	      3.85796595	     -1.19846589	     -6.57892253	     -2.53215960	      0.87400604	      0.17201928	    -19.22667383	      0.19824724	      2.80961645	    -32.47482471	     -3.52426068	      1.95639187	      0.00000000	     21.53012676	      0.16114791	     -4.97156126	    -17.08271578	     -1.09848324	     -9.47201139	      0.00000000	    -17.76914227	     -2.78620332	      4.28078900
      4.10000000	      4.05745386	     -0.52005111	     -5.96290533	     -2.51900550	      0.87484645	      0.17041620	    -17.91797454	     -0.39851211	      1.84905460	    -35.75966147	     -6.32316535	      1.16055675	      0.00000000	     21.35787824	      1.21612946	     -4.57079238	    -18.61121429	      0.22104536	     -9.12957484	      0.00000000	    -17.86729742	     -3.57674980	      3.34203272
      4.11000000	      4.23892706	      0.18661128	     -5.42885134	     -2.50630168	      0.87594006	      0.16890202	    -16.36943800	     -1.05564757	      1.08420768	    -39.26441250	     -8.87654788	      0.20791804	      0.00000000	     20.94930076	      2.27667271	     -4.28436318	    -19.67210193	      1.55650815	     -8.74703968	      0.00000000	    -18.02069402	     -4.39020894	      2.49632047
      4.12000000	      4.37536790	      0.91812186	     -5.01675074	     -2.49403197	      0.87726494	      0.16750065	    -14.58181342	     -1.77321458	      0.56307542	    -42.91840745	    -11.01392913	     -0.84253998	      0.00000000	     20.30530432	      3.33307913	     -4.06853191	    -20.20046416	      2.74679991	     -8.48779269	      0.00000000	    -18.18381235	     -5.21920387	      1.77831721
      4.13000000	      4.45633178	      1.66465808	     -4.75638454	     -2.48214701	      0.87881867	      0.16626623	    -12.58882613	     -2.52483826	      0.33804752	    -46.61454723	    -12.61256338	     -1.98112417	      0.00000000	     19.45259972	      4.35657714	     -3.97673420	    -20.21312502	      3.74625496	     -8.32268359	      0.00000000	    -18.32217652	     -6.05958956	      1.20121636
      4.14000000	      4.49736813	      2.40640484	     -4.63959731	     -2.47057738	      0.88062132	      0.16522600	    -10.46306972	     -3.25677426	      0.41820780	    -50.22696475	    -13.55320889	     -3.16096375	      0.00000000	     18.40612369	      5.32955509	     -3.99050549	    -19.76071939	      4.52401912	     -8.20847313	      0.00000000	    -18.43264214	     -6.89793151	      0.72266800
      4.15000000	      4.47530006	      3.06035441	     -4.63639380	     -2.45929333	      0.88261855	      0.16437056	     -8.22431403	     -3.85093450	      0.75996341	    -53.64665716	    -13.86270406	     -4.41239056	      0.00000000	     17.27055175	      6.16277591	     -4.12177898	    -18.99653739	      5.12185484	     -8.08807567	      0.00000000	    -18.47937762	     -7.63054541	      0.40596991
      4.16000000	      4.41260943	      3.57913781	     -4.67588190	     -2.44823133	      0.88480403	      0.16363978	     -5.95398572	     -4.22905396	      1.26735266	    -56.76997880	    -13.50580897	     -5.65930453	      0.00000000	     16.07680180	      6.82868256	     -4.29768096	    -18.03343571	      5.59999435	     -7.93083853	      0.00000000	    -18.48256828	     -8.19928984	      0.14479902
      4.17000000	      4.31147164	      3.92037691	     -4.68265520	     -2.43736419	      0.88713486	      0.16295611	     -3.69899213	     -4.33056144	      1.83023585	    -59.52594811	    -12.53844207	     -6.88358641	      0.00000000	     14.88585014	      7.29805107	     -4.46488093	    -17.00459878	      6.00583319	     -7.69274397	      0.00000000	    -18.44965081	     -8.54192022	     -0.11119280
      4.18000000	      4.19577150	      4.07087141	     -4.60134484	     -2.42670508	      0.88956760	      0.16224139	     -1.50690759	     -4.15319678	      2.34513599	    -61.88842858	    -11.11822897	     -8.05694666	      0.00000000	     13.73445155	      7.56877495	     -4.56430972	    -16.03664634	      6.40977909	     -7.36278356	      0.00000000	    -18.42938926	     -8.63926006	     -0.42639193
      4.19000000	      3.97340403	      3.95569652	     -4.35825970	     -2.41623193	      0.89195887	      0.16141315	      0.69000124	     -3.62615540	      2.69999886	    -63.82311795	     -9.31663393	     -9.06953931	      0.00000000	     12.79216729	      7.52892352	     -4.77484527	    -15.27333311	      6.93348468	     -6.63170024	      0.00000000	    -18.31216024	     -8.37086943	     -0.83197265
      4.20000000	      3.80970551	      3.74504574	     -3.97723523	     -2.40591003	      0.89441670	      0.16041630	      2.73032283	     -3.00037318	      2.86226652	    -65.35370107	     -7.50238620	    -10.03516737	      0.00000000	     11.79901281	      7.43411071	     -4.67502547	    -14.53147622	      7.38003946	     -6.01790767	      0.00000000	    -18.29976112	     -7.96497597	     -1.35602183
      4.21000000	      3.62743165	      3.41776433	     -3.50843743	     -2.39580827	      0.89674411	      0.15934200	      4.72576642	     -2.25561456	      2.88927859	    -66.52237974	     -5.67540220	    -10.87647886	      0.00000000	     10.95327229	      7.18692424	     -4.71415065	    -14.00623218	      7.94897820	     -5.19767971	      0.00000000	    -18.31156311	     -7.40404356	     -1.95781384
      4.22000000	      3.53098883	      2.99316667	     -2.89628568	     -2.38586981	      0.89905474	      0.15804474	      6.53487666	     -1.46240864	      2.69903378	    -67.29570175	     -4.08986083	    -11.67288368	      0.00000000	     10.02251522	      6.89651144	     -4.29405226	    -13.47895025	      8.40531497	     -4.74246126	      0.00000000	    -18.47339713	     -6.68865444	     -2.69014282
      4.23000000	      3.32772069	      2.61707354	     -2.28154312	     -2.37613869	      0.90096136	      0.15670476	      8.45619330	     -0.78813596	      2.42999472	    -67.81691370	     -2.47499334	    -12.11781033	      0.00000000	      9.30573021	      6.62605358	     -4.02112616	    -13.07351114	      8.88134406	     -4.11643878	      0.00000000	    -18.53434466	     -6.02780028	     -3.40601102
      4.24000000	      3.21477430	      2.23528191	     -1.62620123	     -2.36655559	      0.90275944	      0.15527624	     10.21205467	     -0.17527249	      2.07436753	    -67.99805871	     -1.14439087	    -12.52160722	      0.00000000	      8.48934753	      6.37894067	     -3.48525388	    -12.62895650	      9.27842636	     -3.75489159	      0.00000000	    -18.74401650	     -5.34465361	     -4.17327296
      4.25000000	      3.06869347	      1.94390302	     -1.00351959	     -2.35708657	      0.90421291	      0.15384516	     11.97525156	      0.25737230	      1.68428808	    -67.92034818	      0.23787587	    -12.57953474	      0.00000000	      7.72093776	      6.22454893	     -2.92644808	    -12.16181880	      9.61098302	     -3.55280200	      0.00000000	    -18.92341820	     -4.76742548	     -4.90546007
      4.26000000	      2.94471940	      1.73638398	     -0.42940489	     -2.34773848	      0.90541102	      0.15246555	     13.66670439	      0.54699206	      1.32475781	    -67.56739523	      1.59927050	    -12.41066335	      0.00000000	      6.92185870	      6.15988337	     -2.27898522	    -11.65152306	      9.86680812	     -3.58741178	      0.00000000	    -19.15332609	     -4.30044960	     -5.62882198
